<?xml version="1.0" standalone="no"?>
<!DOCTYPE svg PUBLIC "-//W3C//DTD SVG 20010904//EN"
 "http://www.w3.org/TR/2001/REC-SVG-20010904/DTD/svg10.dtd">
<svg version="1.0" xmlns="http://www.w3.org/2000/svg"
 width="225.000000pt" height="225.000000pt" viewBox="0 0 225.000000 225.000000"
 preserveAspectRatio="xMidYMid meet">

<g transform="translate(0.000000,225.000000) scale(0.100000,-0.100000)"
fill="#000000" stroke="none">
<path d="M1018 2229 c-602 -52 -1055 -598 -997 -1205 74 -786 910 -1245 1612
-886 149 76 258 165 358 290 270 338 323 783 138 1171 -80 169 -173 286 -314
396 -229 179 -503 260 -797 234z m-486 -236 c-10 -4 -10 -8 -1 -19 7 -9 8 -14
1 -14 -6 0 -12 4 -14 9 -1 5 -12 3 -23 -6 l-20 -15 20 6 c33 9 49 -7 26 -28
-10 -9 -22 -16 -27 -14 -5 2 -10 -1 -12 -7 -2 -5 -34 -42 -70 -80 -88 -93
-131 -143 -125 -149 2 -2 0 -7 -6 -10 -5 -4 -13 -1 -17 5 -5 8 -3 9 6 4 9 -5
11 -4 6 4 -13 20 -27 1 -15 -21 8 -15 8 -19 0 -14 -6 4 -11 2 -11 -4 0 -6 -5
-8 -12 -4 -9 6 -9 9 0 12 21 7 13 25 -9 19 -20 -5 -20 -5 -3 21 71 113 215
269 236 256 5 -3 7 -1 6 5 -3 11 49 50 67 49 6 0 4 -2 -3 -5z m-26 -132 c-23
-25 -22 -48 2 -30 16 13 16 13 2 -5 -14 -18 -13 -19 5 -13 20 7 20 7 1 -8 -14
-10 -23 -12 -32 -4 -22 18 4 97 28 83 5 -3 3 -13 -6 -23z m38 -7 c3 -8 2 -12
-4 -9 -6 3 -10 10 -10 16 0 14 7 11 14 -7z m-80 -35 c-3 -6 -1 -15 5 -22 6 -8
6 -18 1 -27 -9 -13 -10 -13 -11 0 -1 8 -1 18 0 22 0 4 -6 5 -14 1 -14 -5 -14
-8 -1 -28 13 -20 13 -25 1 -35 -12 -10 -15 -10 -15 0 0 9 -3 10 -13 1 -8 -6
-17 -8 -20 -4 -4 3 -7 2 -7 -3 0 -6 6 -16 13 -23 8 -9 9 -12 0 -9 -6 2 -18 -6
-27 -17 -15 -19 -15 -19 -9 4 5 18 3 22 -6 16 -10 -6 -11 -3 -1 15 11 20 10
22 -4 17 -10 -4 6 20 34 52 32 37 57 58 66 54 8 -3 11 -9 8 -14z m-127 -143
c-1 -19 -5 -33 -9 -30 -4 3 -5 11 -1 19 3 8 0 15 -7 15 -10 0 -10 3 0 15 17
21 18 20 17 -19z m91 -6 c-7 -10 -14 -17 -17 -15 -4 4 18 35 25 35 2 0 -1 -9
-8 -20z m1155 -273 c3 -7 3 -25 0 -40 -5 -23 -10 -27 -39 -27 -40 0 -52 19
-36 56 9 17 20 24 41 24 16 0 31 -6 34 -13z m98 8 c3 -2 3 -20 1 -40 -4 -33
-6 -35 -43 -35 -41 0 -46 8 -33 58 5 17 14 22 38 22 18 0 35 -2 37 -5z m97
-37 l3 -38 -40 0 c-40 0 -41 1 -41 33 0 42 7 49 45 45 27 -3 30 -7 33 -40z
m100 5 c-3 -36 -5 -38 -40 -41 -37 -3 -38 -2 -38 31 0 18 3 37 7 40 3 4 22 7
40 7 33 0 34 -1 31 -37z m-1303 -174 c-12 -182 -21 -221 -52 -246 -36 -29 -91
-30 -127 -2 -22 18 -26 28 -26 75 0 54 0 54 31 54 30 0 31 -1 24 -38 -7 -46
11 -68 49 -58 27 7 31 21 41 161 10 143 13 155 42 155 l26 0 -8 -101z m89 -6
c-5 -60 -8 -130 -9 -158 0 -46 2 -50 26 -53 14 -2 30 3 36 10 6 7 16 76 23
153 6 77 14 143 17 147 2 5 15 8 29 8 24 0 25 -1 19 -57 -3 -32 -9 -102 -14
-156 -8 -88 -11 -101 -37 -128 -21 -22 -37 -29 -67 -29 -86 0 -100 29 -87 178
18 193 18 192 47 192 l25 0 -8 -107z m233 47 c-3 -33 -4 -60 -3 -60 2 0 22 27
45 60 35 50 47 60 72 60 16 0 29 -2 29 -5 0 -3 -22 -36 -50 -75 -27 -39 -50
-76 -50 -84 0 -7 16 -57 35 -110 l35 -97 -32 3 c-30 3 -33 8 -58 76 -27 74
-40 83 -40 28 0 -17 -3 -48 -6 -68 -6 -34 -10 -38 -35 -38 -25 0 -29 3 -25 23
3 12 10 85 16 162 15 185 15 185 47 185 26 0 26 -1 20 -60z m323 30 c0 -30 0
-30 -59 -30 -66 0 -77 -8 -83 -60 l-3 -35 58 -3 c56 -3 57 -3 57 -33 l0 -31
-59 4 -59 3 -6 -39 c-9 -53 5 -66 70 -66 51 0 54 -1 54 -25 0 -24 -2 -25 -64
-25 -50 0 -69 5 -91 22 l-28 22 7 120 c10 173 34 206 149 206 57 0 57 0 57
-30z m165 20 c50 -19 65 -117 24 -166 -9 -11 -9 -18 -1 -26 7 -7 12 -32 12
-56 0 -35 -6 -49 -29 -73 -16 -16 -38 -29 -48 -28 -15 0 -14 2 5 9 34 14 26
18 -20 10 -24 -5 -47 -5 -53 -2 -10 7 -16 9 -37 11 -8 1 -9 33 -4 119 4 64 8
126 11 137 2 11 4 32 4 48 1 26 3 27 55 27 30 0 66 -4 81 -10z m221 4 c11 -3
28 -19 38 -35 15 -26 16 -40 6 -136 -14 -133 -15 -139 -35 -123 -18 15 -20 -1
-2 -19 10 -11 9 -13 -6 -8 -10 4 -31 0 -47 -8 -47 -25 -86 -20 -98 13 -6 15
-10 38 -8 52 2 14 7 66 11 115 7 94 13 109 55 138 25 18 50 21 86 11z m130
-39 c11 -42 0 -95 -22 -95 -10 0 -44 98 -44 129 0 8 10 11 27 9 22 -2 30 -10
39 -43z m114 25 c0 -21 -34 -79 -43 -73 -6 3 -7 1 -4 -4 9 -15 -17 -75 -28
-66 -4 5 -5 2 -1 -4 4 -7 -13 -55 -38 -108 -40 -83 -48 -95 -71 -95 -27 0 -28
1 -19 24 3 9 10 14 14 11 5 -3 12 0 16 6 4 8 3 9 -4 5 -17 -10 -15 -5 17 66
15 35 31 71 34 81 4 9 14 17 23 17 12 0 15 7 12 25 -4 19 -2 23 7 15 12 -10
25 -4 25 12 0 5 -6 6 -12 3 -7 -4 -1 4 15 17 27 24 38 46 15 32 -6 -4 -3 5 8
19 20 27 34 34 34 17z m-26 -327 c7 -20 4 -23 -23 -23 -26 0 -31 5 -40 38 -13
45 -14 62 -2 44 7 -12 11 -11 22 1 12 14 15 12 25 -11 6 -15 15 -37 18 -49z
m-1 -240 c-6 -16 -5 -16 10 -4 19 15 23 1 5 -17 -9 -9 -8 -12 5 -12 9 0 17 8
18 18 0 12 3 10 10 -8 10 -24 11 -24 25 -6 17 24 18 16 1 -16 -7 -14 -18 -23
-25 -22 -7 1 -8 0 -2 -3 14 -7 0 -30 -61 -103 -29 -35 -55 -58 -61 -54 -6 4
-8 3 -5 -3 4 -6 -5 -19 -20 -28 -23 -16 -25 -16 -20 -1 4 9 2 16 -3 16 -6 0
-9 3 -8 8 4 15 -14 52 -23 47 -21 -13 -7 14 26 51 33 37 35 38 49 20 14 -18
15 -18 13 2 0 11 -5 18 -9 16 -18 -11 -6 24 14 42 13 12 18 13 13 4 -7 -13 -6
-13 7 -2 13 10 17 10 21 0 4 -10 6 -10 6 0 1 7 -6 15 -14 18 -8 4 -12 10 -9
16 3 5 12 4 22 -4 14 -11 15 -10 9 5 -4 11 -5 23 -1 28 9 15 14 10 7 -8z m-72
-7 c-8 -10 -8 -15 -1 -18 6 -2 -2 -17 -17 -34 -16 -17 -33 -40 -40 -50 -10
-17 -13 -17 -22 -4 -17 24 -13 36 5 14 14 -17 15 -17 10 -1 -3 11 0 20 9 24
11 4 13 9 5 18 -7 9 -6 16 4 24 11 9 15 9 19 -1 2 -7 8 -10 12 -6 4 4 2 15 -6
25 -8 9 -9 14 -2 10 6 -4 14 -3 18 3 3 5 9 10 12 10 3 0 0 -6 -6 -14z m199
-27 c0 -6 -5 -7 -12 -3 -7 5 -8 3 -4 -5 5 -7 14 -10 22 -7 7 3 16 0 20 -6 5
-7 2 -8 -6 -3 -8 5 -11 3 -8 -6 3 -8 12 -13 19 -11 8 1 5 -5 -6 -14 -11 -8
-19 -20 -17 -26 4 -13 -18 -39 -28 -33 -4 3 -7 -3 -6 -13 0 -9 -5 -16 -12 -14
-8 1 -11 -2 -7 -9 8 -13 -54 -81 -67 -73 -5 3 -7 0 -6 -8 2 -7 -3 -12 -9 -11
-7 2 -12 -2 -10 -9 2 -14 -23 -18 -40 -6 -13 11 -12 -17 2 -29 4 -4 5 -2 0 6
-6 10 -4 12 4 7 16 -10 -28 -54 -48 -47 -9 2 -12 0 -7 -7 3 -6 2 -13 -3 -16
-11 -7 -9 13 2 32 5 7 12 10 17 7 5 -3 12 0 16 6 4 8 3 9 -4 5 -7 -4 -12 -3
-12 3 0 6 -6 8 -14 5 -8 -3 -17 -1 -21 5 -3 6 0 9 8 5 8 -3 20 2 27 11 11 13
10 14 -6 9 -11 -4 3 16 31 47 28 30 68 77 90 104 22 28 44 53 48 56 5 3 8 8 7
10 -1 2 4 16 11 31 11 26 29 30 29 7z m91 -34 c-25 -27 -35 -62 -20 -71 8 -4
9 -3 5 4 -8 13 17 55 27 46 18 -18 -95 -175 -186 -259 -91 -85 -97 -89 -97
-72 0 8 10 17 22 20 18 5 19 9 9 21 -7 8 -9 21 -5 28 4 7 -5 2 -19 -11 -15
-13 -24 -28 -21 -32 3 -5 0 -9 -5 -9 -22 0 -10 19 42 66 63 59 141 151 187
221 19 29 42 53 50 53 13 0 13 1 0 10 -12 7 -10 9 7 7 22 -1 22 -2 4 -22z
m-336 -264 c3 -5 2 -12 -3 -15 -5 -3 -9 1 -9 9 0 17 3 19 12 6z m90 -51 c3 -5
-1 -10 -10 -10 -9 0 -13 5 -10 10 3 6 8 10 10 10 2 0 7 -4 10 -10z"/>
<path d="M436 1813 c-6 -14 -5 -15 5 -6 7 7 10 15 7 18 -3 3 -9 -2 -12 -12z"/>
<path d="M406 1763 c-3 -3 -6 -13 -6 -21 0 -12 3 -12 15 -2 8 6 19 9 25 5 5
-3 10 -4 10 -1 0 9 -37 25 -44 19z"/>
<path d="M375 1751 c-3 -5 -2 -12 3 -15 5 -3 9 1 9 9 0 17 -3 19 -12 6z"/>
<path d="M370 1710 c0 -5 5 -10 11 -10 5 0 7 5 4 10 -3 6 -8 10 -11 10 -2 0
-4 -4 -4 -10z"/>
<path d="M1530 1368 c0 -15 5 -28 10 -28 6 0 10 6 10 14 0 8 2 21 5 29 4 8 0
14 -10 14 -10 0 -15 -10 -15 -29z"/>
<path d="M1626 1384 c-11 -29 -6 -44 14 -44 16 0 20 7 20 30 0 32 -23 42 -34
14z"/>
<path d="M1728 1394 c-5 -4 -8 -18 -8 -31 0 -16 6 -23 20 -23 16 0 20 6 19 33
0 26 -2 28 -8 12 -8 -19 -9 -19 -12 -2 -2 11 -7 15 -11 11z"/>
<path d="M1820 1370 c0 -22 5 -30 18 -30 13 0 18 9 20 30 2 24 -2 30 -18 30
-16 0 -20 -7 -20 -30z"/>
<path d="M1298 1194 c-4 -51 5 -60 47 -50 28 7 44 50 28 75 -6 9 -24 17 -40
19 -30 3 -31 2 -35 -44z"/>
<path d="M1286 1066 c-3 -12 -6 -36 -6 -53 0 -30 3 -33 29 -33 32 0 45 13 54
50 8 34 -2 46 -40 52 -26 3 -33 0 -37 -16z"/>
<path d="M1548 1243 c-22 -5 -26 -20 -38 -143 -8 -79 -7 -97 5 -109 11 -11 21
-13 42 -5 28 9 28 11 37 122 7 86 6 115 -4 127 -7 8 -15 14 -19 14 -3 -1 -14
-3 -23 -6z"/>
<path d="M1705 660 c3 -5 8 -10 11 -10 2 0 4 5 4 10 0 6 -5 10 -11 10 -5 0 -7
-4 -4 -10z"/>
<path d="M1921 653 c-1 -17 16 -25 25 -12 4 7 3 9 -4 5 -5 -3 -13 0 -15 6 -4
9 -6 10 -6 1z"/>
<path d="M1824 362 c3 -5 1 -12 -6 -14 -8 -3 -9 -6 -1 -11 6 -4 13 0 17 8 3 8
0 17 -6 21 -6 4 -8 3 -4 -4z"/>
</g>
</svg>
